<?xml version="1.0" standalone="no"?>
<!DOCTYPE svg PUBLIC "-//W3C//DTD SVG 20010904//EN"
 "http://www.w3.org/TR/2001/REC-SVG-20010904/DTD/svg10.dtd">
<svg version="1.0" xmlns="http://www.w3.org/2000/svg"
 width="788.000000pt" height="1080.000000pt" viewBox="0 0 788.000000 1080.000000"
 preserveAspectRatio="xMidYMid meet">

<g transform="translate(0.000000,1080.000000) scale(0.100000,-0.100000)"
fill="#000000" stroke="none">
<path d="M0 5400 l0 -5400 3940 0 3940 0 0 2379 0 2379 -21 5 c-23 6 -17 27 7
27 22 0 21 385 -1 394 -8 3 -15 12 -15 21 0 9 7 18 15 21 13 5 15 325 15 2790
l0 2784 -3940 0 -3940 0 0 -5400z m3688 2850 c18 0 32 -5 32 -12 0 -6 -25 -36
-55 -65 -39 -37 -63 -53 -82 -53 -15 0 -45 -9 -68 -20 -37 -18 -48 -32 -96
-125 -29 -58 -57 -105 -63 -105 -12 0 0 110 13 123 6 6 11 17 11 25 0 23 90
150 129 182 72 59 75 61 111 55 19 -2 50 -5 68 -5z m663 -87 c44 -47 75 -98
84 -140 3 -17 13 -37 21 -44 8 -6 14 -22 14 -35 0 -15 6 -24 15 -24 8 0 15 -4
15 -9 0 -5 -7 -11 -15 -15 -8 -3 -15 -16 -15 -30 0 -20 4 -23 23 -20 12 2 16
1 7 -2 -26 -12 -51 -48 -47 -66 6 -22 -9 -24 -17 -3 -3 8 -12 15 -21 15 -8 0
-15 6 -15 14 0 8 -6 21 -13 28 -17 16 -38 78 -32 88 6 10 -7 20 -36 25 -28 6
-90 45 -84 54 2 5 -13 14 -35 21 -47 16 -57 39 -36 82 9 17 16 35 16 41 0 24
56 57 95 57 34 0 47 -6 76 -37z m19 -468 c0 -8 7 -15 15 -15 8 0 15 -5 15 -10
0 -13 -36 5 -67 33 -32 29 -28 40 7 22 17 -9 30 -22 30 -30z m160 -105 c0 -10
6 -20 14 -23 23 -9 26 -64 11 -170 -9 -55 -17 -103 -19 -105 -9 -8 -38 148
-42 223 -3 44 -7 89 -9 101 -3 12 -1 24 3 28 9 10 42 -32 42 -54z m-90 9 c0
-19 -1 -19 -16 -5 -8 9 -12 20 -9 26 9 15 25 2 25 -21z m-1137 -84 c-3 -9 -8
-14 -10 -11 -3 3 -2 9 2 15 9 16 15 13 8 -4z m807 -25 c0 -5 -4 -10 -10 -10
-5 0 -10 5 -10 10 0 6 5 10 10 10 6 0 10 -4 10 -10z m550 0 c0 -5 -4 -10 -10
-10 -5 0 -10 5 -10 10 0 6 5 10 10 10 6 0 10 -4 10 -10z m-1365 -39 c3 -5 1
-12 -5 -16 -5 -3 -10 1 -10 9 0 18 6 21 15 7z m2294 -150 c17 -11 7 -41 -13
-41 -19 0 -29 17 -22 35 6 17 15 18 35 6z m-1204 -11 c3 -5 0 -10 -7 -10 -9
-1 -7 -5 5 -14 23 -18 21 -32 -5 -40 -35 -9 -38 -8 -38 18 0 48 27 75 45 46z
m-547 -32 c7 -7 12 -16 12 -20 0 -12 -58 -10 -65 2 -16 26 30 41 53 18z m106
-7 c10 -11 32 -21 50 -23 33 -3 39 -20 10 -27 -20 -4 -124 19 -124 27 0 8 32
42 40 42 4 0 15 -9 24 -19z m1431 -117 c20 -21 16 -73 -7 -88 -28 -17 -72 4
-76 38 -6 52 48 85 83 50z m-3475 -174 c0 -5 -2 -10 -4 -10 -3 0 -8 5 -11 10
-3 6 -1 10 4 10 6 0 11 -4 11 -10z m2020 -89 c0 -12 -47 -31 -78 -31 -58 0
-97 23 -54 32 36 8 132 7 132 -1z m1830 -6 c-7 -9 -15 -13 -17 -11 -7 7 7 26
19 26 6 0 6 -6 -2 -15z m-33 -53 c-10 -10 -14 -22 -11 -25 4 -4 -1 -9 -10 -13
-35 -13 -38 13 -5 40 34 29 53 28 26 -2z m29 -77 c18 -14 16 -15 -25 -13 -25
2 -46 9 -49 16 -5 17 50 16 74 -3z m-2920 -112 c15 -20 18 -81 6 -100 -4 -7
-21 -15 -37 -18 -23 -5 -36 0 -57 20 -33 31 -35 53 -7 89 24 31 74 36 95 9z
m2542 -40 c12 -24 4 -43 -17 -43 -27 0 -42 20 -30 42 12 23 36 23 47 1z m1832
-12 c0 -15 -82 -101 -110 -116 -16 -8 -31 -24 -34 -35 -3 -11 -8 -29 -11 -39
-5 -15 4 -26 32 -45 l38 -26 -30 0 c-39 0 -51 9 -65 44 -18 47 3 96 68 162 25
24 52 44 61 44 9 0 23 5 31 10 19 12 20 12 20 1z m-610 -11 c0 -5 -4 -10 -10
-10 -5 0 -10 5 -10 10 0 6 5 10 10 10 6 0 10 -4 10 -10z m773 3 c-7 -2 -19 -2
-25 0 -7 3 -2 5 12 5 14 0 19 -2 13 -5z m-3853 -18 c0 -8 -4 -15 -9 -15 -13 0
-22 16 -14 24 11 11 23 6 23 -9z m3908 -44 c19 -26 19 -28 3 -24 -10 3 -24 16
-30 29 -15 33 1 30 27 -5z m70 -87 c-4 -3 -12 5 -18 18 -12 22 -12 22 6 6 10
-10 15 -20 12 -24z m-5134 12 c19 -8 42 -28 52 -45 19 -32 45 -46 109 -58 l40
-7 -54 -8 c-45 -7 -61 -15 -98 -52 -40 -40 -49 -44 -111 -51 l-67 -7 -47 53
c-27 29 -48 56 -48 61 0 13 71 107 88 118 25 14 98 12 136 -4z m-614 -4 c0
-13 -12 -22 -22 -16 -10 6 -1 24 13 24 5 0 9 -4 9 -8z m3064 -8 c5 -14 4 -15
-9 -4 -17 14 -19 20 -6 20 5 0 12 -7 15 -16z m-1878 -21 c-10 -10 -19 5 -10
18 6 11 8 11 12 0 2 -7 1 -15 -2 -18z m3926 -35 c-9 -9 -15 -9 -24 0 -10 10
-10 15 2 22 9 6 19 5 24 0 7 -7 6 -14 -2 -22z m-5122 -58 c0 -5 -4 -10 -10
-10 -5 0 -10 5 -10 10 0 6 5 10 10 10 6 0 10 -4 10 -10z m3481 -120 c180 -89
204 -101 329 -156 118 -52 144 -65 230 -115 77 -45 150 -99 150 -111 0 -13
-47 6 -85 36 -109 85 -195 136 -296 176 -73 29 -241 90 -259 94 -87 21 -160
54 -92 42 20 -4 31 -2 27 4 -3 6 -11 10 -17 10 -5 0 -23 9 -39 20 -15 12 -52
29 -81 39 -69 24 -178 74 -178 82 0 16 162 -47 311 -121z m-4215 81 c22 -15
52 -42 66 -60 23 -27 25 -35 17 -60 -10 -28 -32 -41 -73 -41 -16 0 -15 3 8 21
14 11 26 25 26 30 0 21 -58 90 -89 105 -25 12 -30 18 -20 25 20 13 22 12 65
-20z m2337 -27 c-15 -27 -46 -84 -67 -126 -22 -43 -44 -78 -49 -78 -11 0 1 54
14 58 5 2 9 9 9 15 0 6 -12 0 -26 -14 -23 -20 -25 -21 -16 -4 5 11 26 33 46
50 21 17 31 32 25 36 -7 4 8 26 35 55 25 27 46 53 46 58 0 5 2 7 5 4 3 -3 -7
-27 -22 -54z m-2480 -12 c-39 -36 -52 -55 -55 -82 -4 -35 -4 -35 -15 -10 -6
14 -7 27 -2 28 5 2 9 12 9 23 0 28 69 86 105 88 6 0 -13 -21 -42 -47z m1205
27 c-2 -6 -8 -10 -13 -10 -5 0 -11 4 -13 10 -2 6 4 11 13 11 9 0 15 -5 13 -11z
m412 -30 c0 -5 -7 -9 -15 -9 -15 0 -20 12 -9 23 8 8 24 -1 24 -14z m3820 -11
c0 -15 -32 -21 -40 -7 -13 20 9 43 26 28 8 -6 14 -16 14 -21z m-3482 1 c-2 -6
-8 -10 -13 -10 -5 0 -11 4 -13 10 -2 6 4 11 13 11 9 0 15 -5 13 -11z m2237
-20 c13 -13 -3 -10 -45 7 l-35 14 35 -6 c19 -3 39 -10 45 -15z m-1795 -16 c0
-7 -112 -60 -160 -76 -8 -3 -32 -12 -52 -21 -21 -9 -38 -13 -38 -8 0 4 19 16
43 26 23 9 76 32 117 51 82 36 90 39 90 28z m2648 -36 c4 -20 -25 -34 -39 -20
-14 14 1 45 20 41 9 -2 17 -11 19 -21z m1087 -57 c3 -5 8 -44 10 -85 4 -55 2
-75 -7 -75 -7 0 0 -11 15 -25 30 -29 32 -36 15 -53 -19 -19 -45 -14 -62 10
-13 18 -26 22 -78 24 -81 2 -78 2 -78 19 0 10 11 15 33 16 l32 2 -35 6 -35 6
-2 70 c-2 39 -1 76 2 83 5 15 181 17 190 2z m865 -41 c0 -5 -7 -9 -15 -9 -15
0 -20 12 -9 23 8 8 24 -1 24 -14z m-5190 -10 c0 -5 -4 -9 -10 -9 -5 0 -10 7
-10 16 0 8 5 12 10 9 6 -3 10 -10 10 -16z m-625 -39 c0 -8 -8 -16 -17 -18 -13
-2 -18 3 -18 18 0 15 5 20 18 18 9 -2 17 -10 17 -18z m889 5 c-10 -8 -24 -15
-30 -15 -6 0 -17 -7 -24 -15 -14 -16 -40 -20 -40 -6 0 11 79 51 99 51 11 0 9
-4 -5 -15z m281 6 c3 -5 1 -12 -5 -16 -5 -3 -10 1 -10 9 0 18 6 21 15 7z
m-450 -71 c-3 -5 -12 -10 -20 -10 -7 0 -15 -3 -17 -7 -3 -8 -46 -33 -134 -77
-28 -15 -63 -37 -78 -51 -15 -14 -31 -25 -35 -25 -5 0 -29 -20 -53 -44 -44
-43 -75 -99 -70 -123 4 -17 -13 -16 -27 1 -16 19 -3 46 54 107 66 71 157 141
231 176 32 15 61 31 62 36 2 4 12 7 22 7 10 0 22 5 25 10 3 6 15 10 26 10 11
0 17 -4 14 -10z m412 -32 c-3 -8 -6 -5 -6 6 -1 11 2 17 5 13 3 -3 4 -12 1 -19z
m-2692 -89 c0 -7 -8 -15 -17 -17 -18 -3 -25 18 -11 32 10 10 28 1 28 -15z
m745 -8 c0 -6 -4 -13 -10 -16 -5 -3 -10 1 -10 9 0 9 5 16 10 16 6 0 10 -4 10
-9z m1896 -66 c-9 -20 -20 -34 -26 -30 -6 4 -1 23 13 49 25 51 36 36 13 -19z
m2824 30 c11 -13 10 -14 -4 -9 -9 3 -16 10 -16 15 0 13 6 11 20 -6z m1151 -10
c-1 -15 -24 -12 -29 3 -3 9 2 13 12 10 10 -1 17 -7 17 -13z m-801 -10 c18 -21
5 -45 -25 -45 -40 0 -34 54 6 59 4 1 12 -6 19 -14z m-5930 -30 c0 -8 -9 -15
-20 -15 -20 0 -26 11 -13 23 12 13 33 7 33 -8z m5565 -32 c27 -41 33 -65 13
-57 -12 4 -48 71 -48 87 0 15 10 6 35 -30z m1677 -8 c0 -5 -5 -11 -11 -13 -6
-2 -11 4 -11 13 0 9 5 15 11 13 6 -2 11 -8 11 -13z m-4722 -18 c0 -2 -10 -12
-21 -23 -22 -19 -22 -19 -10 4 10 18 31 31 31 19z m184 -21 c-3 -9 -10 -16
-15 -16 -6 0 -5 9 1 21 13 24 24 20 14 -5z m-819 -16 c0 -38 -39 -35 -43 3 -3
25 0 28 20 25 17 -2 23 -9 23 -28z m4443 3 c3 -19 -1 -23 -21 -23 -25 0 -42
23 -31 41 11 19 49 5 52 -18z m-6408 -24 c0 -23 -28 -26 -37 -3 -6 16 15 37
29 28 4 -3 8 -14 8 -25z m1620 16 c16 -19 6 -45 -19 -45 -23 0 -35 28 -20 46
15 18 24 18 39 -1z m120 -30 c15 -18 5 -65 -14 -65 -16 0 -46 26 -46 40 0 11
29 40 39 40 5 0 14 -7 21 -15z m5130 -25 c0 -5 -7 -10 -15 -10 -8 0 -15 5 -15
10 0 6 7 10 15 10 8 0 15 -4 15 -10z m138 -22 c-2 -13 -10 -23 -18 -23 -8 0
-16 10 -18 23 -3 17 2 22 18 22 16 0 21 -5 18 -22z m-3962 -15 c-7 -7 -26 7
-26 19 0 6 6 6 15 -2 9 -7 13 -15 11 -17z m-1968 -9 c10 -5 -14 -34 -29 -34
-25 0 -35 26 -19 45 10 12 16 13 29 3 9 -7 17 -13 19 -14z m-638 -30 c0 -9 -7
-14 -17 -12 -25 5 -28 28 -4 28 12 0 21 -6 21 -16z m800 -83 c0 -3 11 -19 25
-35 30 -35 32 -62 6 -71 -29 -9 -45 2 -71 51 -24 44 -24 46 -7 59 18 13 47 11
47 -4z m4609 -41 c0 -10 -3 -8 -9 5 -12 27 -12 43 0 25 5 -8 9 -22 9 -30z
m-5282 -16 c-9 -9 -28 6 -21 18 4 6 10 6 17 -1 6 -6 8 -13 4 -17z m1359 -47
c1 -23 -2 -26 -20 -21 -41 13 -42 58 -2 52 15 -2 21 -10 22 -31z m3931 11 c-3
-8 -6 -5 -6 6 -1 11 2 17 5 13 3 -3 4 -12 1 -19z m723 -4 c0 -8 -5 -12 -10 -9
-6 4 -8 11 -5 16 9 14 15 11 15 -7z m469 2 c13 -16 5 -46 -13 -46 -23 0 -36
22 -25 42 12 22 22 23 38 4z m-4721 -69 c15 -11 17 -133 2 -142 -7 -4 -7 -12
0 -25 14 -26 13 -73 -2 -88 -7 -7 -21 -12 -32 -13 -18 -1 -17 -2 4 -8 18 -5
25 -14 25 -31 l0 -25 -145 0 -145 0 -3 24 c-2 13 2 28 10 33 10 7 10 11 1 15
-16 6 -17 89 -2 99 8 4 8 9 0 17 -12 12 -15 126 -3 144 5 8 45 13 117 15 119
3 153 1 173 -15z m-411 -9 c-3 -8 -6 -5 -6 6 -1 11 2 17 5 13 3 -3 4 -12 1
-19z m1221 -24 c-10 -10 -28 6 -28 24 0 15 1 15 17 -1 9 -9 14 -19 11 -23z
m-2003 7 c3 -5 1 -12 -5 -16 -5 -3 -10 1 -10 9 0 18 6 21 15 7z m4789 -122 c3
-19 -6 0 -19 41 -14 41 -25 80 -24 85 1 16 36 -88 43 -126z m-4024 65 c-17
-50 -24 -35 -9 16 7 24 15 38 17 32 2 -7 -2 -28 -8 -48z m-982 22 c3 -13 -1
-17 -14 -14 -11 2 -20 11 -22 22 -3 13 1 17 14 14 11 -2 20 -11 22 -22z m320
-28 c14 -14 16 -44 3 -53 -19 -11 -58 16 -56 38 3 28 2 27 23 27 10 0 23 -5
30 -12z m262 3 c0 -6 -4 -13 -10 -16 -5 -3 -10 1 -10 9 0 9 5 16 10 16 6 0 10
-4 10 -9z m-1504 -62 c3 -6 2 -15 -2 -19 -12 -12 -38 5 -30 19 9 14 23 14 32
0z m824 -40 c0 -25 -33 -22 -38 4 -2 12 3 17 17 17 15 0 21 -6 21 -21z m-90
-4 c0 -8 -4 -15 -9 -15 -13 0 -22 16 -14 24 11 11 23 6 23 -9z m4728 -13 c3
-16 -2 -22 -16 -22 -24 0 -35 23 -19 39 16 16 31 8 35 -17z m1400 2 c3 -23
-18 -37 -43 -28 -16 6 -20 35 -8 48 14 14 48 1 51 -20z m222 11 c10 -12 10
-18 0 -30 -25 -30 -57 -12 -45 25 8 24 28 26 45 5z m-5241 -14 c12 -22 5 -31
-26 -31 -16 0 -23 6 -23 18 0 36 33 44 49 13z m-1333 1 c6 -4 13 -15 17 -24 5
-14 1 -18 -18 -18 -27 0 -39 14 -31 35 6 16 15 19 32 7z m6654 -2 c0 -5 -4
-10 -9 -10 -6 0 -13 5 -16 10 -3 6 1 10 9 10 9 0 16 -4 16 -10z m-700 -15 c0
-8 -7 -15 -15 -15 -16 0 -20 12 -8 23 11 12 23 8 23 -8z m-6575 -55 c0 -8 -8
-16 -17 -18 -13 -2 -18 3 -18 18 0 15 5 20 18 18 9 -2 17 -10 17 -18z m1829 4
c8 -21 -11 -44 -35 -44 -23 0 -32 15 -24 40 8 24 50 27 59 4z m2604 -21 c2 -8
-5 -13 -17 -13 -12 0 -21 6 -21 16 0 18 31 15 38 -3z m2283 -16 c-13 -13 -26
-3 -16 12 3 6 11 8 17 5 6 -4 6 -10 -1 -17z m-3333 -21 c-4 -25 -36 -34 -44
-12 -8 21 13 46 32 39 8 -3 14 -15 12 -27z m-3010 -4 c4 -28 -24 -40 -45 -19
-21 21 -9 49 19 45 15 -2 24 -11 26 -26z m7250 5 c4 -20 -25 -34 -40 -19 -15
15 -1 44 19 40 10 -2 19 -11 21 -21z m-6576 -32 c0 -5 -5 -11 -11 -13 -6 -2
-11 4 -11 13 0 9 5 15 11 13 6 -2 11 -8 11 -13z m5298 -20 c0 -8 -7 -15 -15
-15 -8 0 -15 7 -15 15 0 8 7 15 15 15 8 0 15 -7 15 -15z m-2393 -29 c-4 -9
-13 -13 -22 -10 -18 7 -20 31 -2 37 17 6 31 -9 24 -27z m1463 30 c0 -3 -4 -8
-10 -11 -5 -3 -10 -1 -10 4 0 6 5 11 10 11 6 0 10 -2 10 -4z m1746 -17 c3 -6
2 -15 -3 -20 -13 -13 -43 -1 -43 17 0 16 36 19 46 3z m114 -10 c0 -12 -29 -24
-37 -16 -3 4 -3 13 0 21 6 16 37 11 37 -5z m-6890 -4 c0 -8 -6 -15 -14 -15
-17 0 -28 14 -19 24 12 12 33 6 33 -9z m5104 -6 c-3 -5 -10 -7 -15 -3 -5 3 -7
10 -3 15 3 5 10 7 15 3 5 -3 7 -10 3 -15z m-1356 -22 c4 -21 -27 -35 -38 -17
-12 19 0 42 19 38 9 -2 17 -11 19 -21z m-2613 2 c4 -5 4 -21 1 -35 -5 -20 -12
-25 -34 -22 -27 3 -39 25 -28 54 6 16 52 19 61 3z m5142 5 c-3 -3 -12 -4 -19
-1 -8 3 -5 6 6 6 11 1 17 -2 13 -5z m-6582 -24 c8 -25 -1 -40 -25 -40 -20 0
-32 22 -24 45 9 22 42 18 49 -5z m6535 1 c15 -30 2 -53 -29 -49 -29 3 -40 31
-21 53 17 21 37 19 50 -4z m168 2 c-4 -22 -22 -20 -26 1 -2 10 3 16 13 16 10
0 15 -7 13 -17z m-1140 -41 c-4 -22 -53 -28 -61 -8 -4 9 1 22 9 31 19 19 57 2
52 -23z m557 8 c0 -33 -40 -41 -50 -11 -9 28 2 43 28 39 16 -2 22 -10 22 -28z
m-987 9 c-2 -6 -8 -10 -13 -10 -5 0 -11 4 -13 10 -2 6 4 11 13 11 9 0 15 -5
13 -11z m2086 -14 c3 -9 -1 -18 -10 -22 -19 -7 -26 0 -18 21 8 20 20 21 28 1z
m-1604 -4 c0 -6 -4 -13 -10 -16 -5 -3 -10 1 -10 9 0 9 5 16 10 16 6 0 10 -4
10 -9z m-5766 -22 c-8 -14 -24 -10 -24 6 0 9 6 12 15 9 8 -4 12 -10 9 -15z
m4787 -11 c15 -22 10 -65 -9 -89 -23 -28 -90 -29 -109 -2 -21 28 -16 80 10 98
26 19 95 15 108 -7z m-623 -12 c4 -21 -14 -37 -35 -29 -14 5 -18 35 -6 47 12
12 38 1 41 -18z m2462 20 c0 -2 -7 -7 -16 -10 -8 -3 -12 -2 -9 4 6 10 25 14
25 6z m-3440 -26 c0 -5 -2 -10 -4 -10 -3 0 -8 5 -11 10 -3 6 -1 10 4 10 6 0
11 -4 11 -10z m3022 -20 c3 -16 1 -30 -4 -30 -4 0 -8 6 -8 14 0 8 -3 21 -6 30
-3 9 -2 16 4 16 5 0 12 -13 14 -30z m1461 -11 c-17 -17 -37 -1 -22 17 8 10 15
12 23 4 7 -7 7 -13 -1 -21z m-6173 -5 c13 -12 12 -17 -6 -34 -23 -23 -43 -20
-62 10 -18 29 -5 51 27 44 14 -4 33 -13 41 -20z m-1032 -46 c3 -25 0 -28 -28
-28 -35 0 -49 22 -29 46 20 24 53 14 57 -18z m2406 24 c8 -13 -11 -35 -23 -28
-16 10 -14 36 3 36 8 0 17 -4 20 -8z m-604 -12 c13 -8 13 -11 -2 -27 -21 -20
-45 -5 -35 21 7 18 16 20 37 6z m-940 -20 c0 -5 -4 -10 -10 -10 -5 0 -10 5
-10 10 0 6 5 10 10 10 6 0 10 -4 10 -10z m418 -19 c3 -8 -1 -12 -9 -9 -7 2
-15 10 -17 17 -3 8 1 12 9 9 7 -2 15 -10 17 -17z m5320 -15 c-4 -26 -45 -35
-54 -12 -9 23 13 45 37 39 14 -4 19 -12 17 -27z m677 24 c4 -6 1 -18 -6 -26
-11 -13 -14 -13 -27 0 -8 8 -11 19 -8 25 9 14 33 14 41 1z m-519 -46 c-6 -17
-8 -17 -24 0 -15 15 -15 18 -2 26 19 12 35 -3 26 -26z m-5964 4 c-12 -12 -35
-1 -27 12 3 5 13 6 21 3 10 -4 12 -9 6 -15z m3598 -29 c0 -20 -15 -26 -25 -9
-9 15 3 43 15 35 5 -3 10 -15 10 -26z m-3370 -13 c0 -3 -4 -8 -10 -11 -5 -3
-10 -1 -10 4 0 6 5 11 10 11 6 0 10 -2 10 -4z m-1242 -33 c5 -17 -26 -29 -40
-15 -6 6 -7 15 -3 22 9 14 37 9 43 -7z m5952 -34 c11 -20 -1 -49 -19 -49 -22
0 -43 28 -37 48 9 28 42 29 56 1z m-2595 -1 c14 -6 25 -15 25 -19 0 -5 16 -24
35 -43 43 -43 45 -76 9 -105 -23 -18 -41 -21 -129 -21 -116 0 -147 14 -147 64
0 29 36 76 59 76 8 0 16 7 19 15 8 20 52 44 81 45 12 0 34 -5 48 -12z m-3025
-34 c0 -22 -29 -29 -47 -11 -13 13 -14 19 -4 31 16 19 51 5 51 -20z m1148 2
c-4 -25 -36 -34 -44 -12 -8 21 13 46 32 39 8 -3 14 -15 12 -27z m3632 24 c0
-5 -4 -10 -9 -10 -6 0 -13 5 -16 10 -3 6 1 10 9 10 9 0 16 -4 16 -10z m1620 6
c0 -11 -19 -15 -25 -6 -3 5 1 10 9 10 9 0 16 -2 16 -4z m-5870 -26 c0 -21 -24
-28 -35 -10 -8 14 3 30 21 30 8 0 14 -9 14 -20z m265 0 c8 -26 -1 -40 -26 -40
-25 0 -35 25 -19 45 17 21 37 19 45 -5z m4365 -16 c0 -8 -7 -14 -15 -14 -15 0
-21 21 -9 33 10 9 24 -2 24 -19z m-1650 -9 c16 -20 6 -45 -19 -45 -26 0 -45
32 -29 48 16 16 33 15 48 -3z m3346 -2 c14 -20 2 -43 -23 -43 -19 0 -28 27
-13 45 16 19 20 19 36 -2z m-290 -20 c-10 -10 -19 5 -10 18 6 11 8 11 12 0 2
-7 1 -15 -2 -18z m-2671 -3 c11 -17 -5 -32 -21 -19 -7 6 -11 15 -8 20 7 12 21
11 29 -1z m2795 -9 c0 -11 -4 -22 -9 -25 -12 -8 -34 21 -26 34 11 17 35 11 35
-9z m-1512 -44 c2 -10 -3 -17 -11 -17 -16 0 -30 24 -19 34 10 10 27 1 30 -17z
m-4128 -7 c0 -13 -7 -20 -19 -20 -22 0 -35 15 -26 30 12 19 45 11 45 -10z
m3910 0 c0 -5 -4 -10 -10 -10 -5 0 -10 5 -10 10 0 6 5 10 10 10 6 0 10 -4 10
-10z m-629 -53 c-1 -12 -15 -9 -19 4 -3 6 1 10 8 8 6 -3 11 -8 11 -12z m1971
-2 c0 -5 -5 -11 -11 -13 -6 -2 -11 4 -11 13 0 9 5 15 11 13 6 -2 11 -8 11 -13z
m-2697 -5 c3 -5 -1 -10 -9 -10 -8 0 -18 5 -21 10 -3 6 1 10 9 10 8 0 18 -4 21
-10z m3305 -10 c0 -5 -12 -10 -27 -10 -22 0 -25 2 -13 10 20 13 40 13 40 0z
m-6456 -9 c9 -15 -23 -36 -36 -23 -5 5 -7 15 -4 21 9 13 33 14 40 2z m-486
-12 c-2 -6 -8 -10 -13 -10 -5 0 -11 4 -13 10 -2 6 4 11 13 11 9 0 15 -5 13
-11z m6619 -14 c7 -20 -2 -29 -21 -22 -9 4 -13 13 -10 22 8 19 23 19 31 0z
m553 -20 c0 -8 -7 -15 -15 -15 -16 0 -20 12 -8 23 11 12 23 8 23 -8z m-2360
-13 c0 -13 -12 -22 -22 -16 -10 6 -1 24 13 24 5 0 9 -4 9 -8z m-4125 -22 c0
-8 -8 -16 -17 -18 -13 -2 -18 3 -18 18 0 15 5 20 18 18 9 -2 17 -10 17 -18z
m5655 -26 c0 -17 -5 -24 -20 -24 -28 0 -38 30 -15 46 23 17 35 9 35 -22z
m-1765 -3 c3 -5 1 -12 -5 -16 -5 -3 -10 1 -10 9 0 18 6 21 15 7z m-4215 -26
c0 -18 -5 -25 -19 -25 -11 0 -23 5 -26 10 -11 18 3 40 25 40 15 0 20 -7 20
-25z m2113 19 c11 -11 -5 -34 -24 -34 -12 0 -19 7 -19 20 0 19 28 28 43 14z
m-2413 -24 c0 -5 -4 -10 -9 -10 -6 0 -13 5 -16 10 -3 6 1 10 9 10 9 0 16 -4
16 -10z m6974 1 c10 -16 -5 -41 -24 -41 -25 0 -35 18 -20 35 14 17 36 20 44 6z
m-1204 -22 c0 -5 -7 -9 -15 -9 -15 0 -20 12 -9 23 8 8 24 -1 24 -14z m-5565 1
c8 -13 -14 -42 -26 -34 -5 3 -9 14 -9 25 0 20 24 26 35 9z m2384 -9 c18 -11 5
-31 -20 -31 -18 0 -26 20 -12 33 8 9 15 9 32 -2z m1821 5 c0 -11 -19 -15 -25
-6 -3 5 1 10 9 10 9 0 16 -2 16 -4z m-595 -26 c3 -5 -1 -10 -10 -10 -9 0 -13
5 -10 10 3 6 8 10 10 10 2 0 7 -4 10 -10z m1355 -21 c0 -5 9 -9 20 -9 27 0 86
-62 112 -117 17 -36 18 -48 9 -72 -15 -34 -77 -71 -120 -71 -39 0 -46 16 -26
63 17 41 9 69 -25 87 -27 15 -82 12 -106 -5 -26 -18 -34 -11 -34 30 0 42 49
95 88 95 15 0 33 4 41 9 16 10 41 4 41 -10z m-2078 -21 c-7 -7 -12 -8 -12 -2
0 6 3 14 7 17 3 4 9 5 12 2 2 -3 -1 -11 -7 -17z m3456 -1 c4 -22 -27 -35 -38
-16 -10 15 7 42 24 36 6 -2 12 -11 14 -20z m-2955 -19 c12 -6 28 -17 35 -25
11 -11 11 -14 -5 -19 -10 -3 -26 -10 -35 -15 -24 -12 -52 -11 -66 3 -13 13
-16 50 -5 61 10 11 52 8 76 -5z m294 -65 c4 -12 -36 -25 -50 -16 -12 7 23 35
37 30 5 -2 11 -8 13 -14z m2543 13 c0 -3 -4 -8 -10 -11 -5 -3 -10 -1 -10 4 0
6 5 11 10 11 6 0 10 -2 10 -4z m-6886 -22 c8 -21 -1 -34 -24 -34 -25 0 -35 17
-20 35 16 20 36 19 44 -1z m1236 -22 l23 -19 -19 -39 c-16 -32 -24 -39 -49
-39 -25 0 -31 6 -44 39 -14 37 -14 40 8 57 29 24 53 24 81 1z m4240 -55 c0
-29 -7 -37 -26 -30 -14 5 -19 35 -7 46 14 15 33 6 33 -16z m-4490 -22 c0 -8
-4 -15 -9 -15 -13 0 -22 16 -14 24 11 11 23 6 23 -9z m3100 -75 c0 -5 -4 -10
-10 -10 -5 0 -10 5 -10 10 0 6 5 10 10 10 6 0 10 -4 10 -10z m330 -15 c0 -8
-4 -15 -10 -15 -5 0 -10 7 -10 15 0 8 5 15 10 15 6 0 10 -7 10 -15z m2840 -65
c0 -5 -4 -10 -10 -10 -5 0 -10 5 -10 10 0 6 5 10 10 10 6 0 10 -4 10 -10z
m-6172 -48 c2 -7 -3 -12 -12 -12 -9 0 -16 7 -16 16 0 17 22 14 28 -4z m264 6
c-9 -9 -15 -9 -24 0 -9 9 -7 12 12 12 19 0 21 -3 12 -12z m1193 -58 c0 -16 -6
-26 -18 -28 -19 -4 -32 20 -23 44 9 25 41 13 41 -16z m-1403 -25 c0 -5 -5 -11
-11 -13 -6 -2 -11 4 -11 13 0 9 5 15 11 13 6 -2 11 -8 11 -13z m3878 -85 c0
-5 -4 -10 -10 -10 -5 0 -10 5 -10 10 0 6 5 10 10 10 6 0 10 -4 10 -10z m1204
4 c18 -7 21 -39 5 -50 -16 -9 -41 20 -33 39 7 19 7 19 28 11z m-4884 -59 c0
-8 -4 -15 -10 -15 -5 0 -10 7 -10 15 0 8 5 15 10 15 6 0 10 -7 10 -15z m1573
-22 c37 -14 46 -21 41 -35 -4 -15 0 -18 30 -18 19 0 38 -5 41 -10 4 -6 11 -8
16 -5 5 4 11 0 14 -7 4 -9 31 -14 88 -16 92 -3 113 -15 103 -56 -4 -18 -15
-28 -34 -31 -15 -3 -49 -13 -76 -21 -26 -7 -52 -14 -57 -14 -17 0 -9 39 13 60
12 11 19 22 17 24 -3 3 -27 7 -55 10 -55 5 -141 35 -191 66 -43 26 -44 62 -3
69 3 1 26 -7 53 -16z m2336 -19 c9 -20 7 -28 -10 -45 -30 -30 -79 -11 -79 31
0 51 67 62 89 14z m-4699 -4 c0 -5 -7 -10 -15 -10 -8 0 -15 5 -15 10 0 6 7 10
15 10 8 0 15 -4 15 -10z m-470 -50 c0 -5 -5 -10 -11 -10 -5 0 -7 5 -4 10 3 6
8 10 11 10 2 0 4 -4 4 -10z m-100 -10 c0 -5 -2 -10 -4 -10 -3 0 -8 5 -11 10
-3 6 -1 10 4 10 6 0 11 -4 11 -10z m7540 -30 c0 -5 -4 -10 -10 -10 -5 0 -10 5
-10 10 0 6 5 10 10 10 6 0 10 -4 10 -10z m-4226 -32 c7 -5 4 -8 -6 -8 -12 0
-18 7 -17 23 0 15 2 17 6 7 3 -8 11 -18 17 -22z m1314 -20 c17 -17 15 -53 -3
-68 -20 -17 -62 -5 -70 20 -14 44 41 80 73 48z m-1398 -91 c0 -47 -55 -66 -66
-23 -8 34 2 46 37 46 24 0 29 -4 29 -23z m128 -2 c11 -24 10 -25 -8 -15 -11 6
-20 17 -20 25 0 23 16 17 28 -10z m-1758 5 c0 -5 -4 -10 -10 -10 -5 0 -10 5
-10 10 0 6 5 10 10 10 6 0 10 -4 10 -10z m1074 4 c23 -9 20 -22 -11 -37 -31
-16 -53 -12 -53 7 0 10 18 24 47 35 1 1 8 -2 17 -5z m-1304 -58 c0 -15 -24
-28 -34 -19 -13 14 -5 33 14 33 11 0 20 -6 20 -14z m1292 -27 c-18 -12 -36
-19 -39 -15 -4 4 3 9 15 13 12 3 22 9 22 14 0 5 8 9 18 9 11 0 6 -7 -16 -21z
m-82 -75 c0 -24 -4 -34 -12 -32 -18 6 -22 36 -8 53 18 21 20 19 20 -21z m1570
6 c0 -19 4 -20 50 -14 42 6 50 4 50 -10 0 -9 -7 -16 -15 -16 -8 0 -14 -8 -12
-17 1 -10 -2 -18 -8 -18 -5 0 -9 3 -7 8 3 10 -16 9 -23 -3 -3 -5 3 -18 14 -29
19 -19 19 -19 -15 -23 -36 -4 -41 1 -23 19 6 6 9 17 7 24 -5 14 -58 -72 -58
-95 0 -18 -16 -30 -25 -17 -3 6 -12 8 -20 4 -10 -3 -15 2 -15 17 0 12 4 18 10
15 6 -3 12 0 14 7 28 100 53 168 64 168 6 0 12 -9 12 -20z m1760 -15 c6 -8 10
-22 8 -32 -5 -25 -51 -25 -56 0 -8 42 23 63 48 32z m-4195 -5 c4 -6 1 -17 -5
-26 -10 -11 -16 -12 -26 -3 -11 9 -11 15 -3 25 14 17 25 18 34 4z m1182 -96
c-3 -3 -12 -4 -19 -1 -8 3 -5 6 6 6 11 1 17 -2 13 -5z m-2329 -21 c2 -8 -5
-13 -17 -13 -12 0 -21 6 -21 16 0 18 31 15 38 -3z m2252 7 c0 -5 -5 -10 -11
-10 -5 0 -7 5 -4 10 3 6 8 10 11 10 2 0 4 -4 4 -10z m1390 -30 c0 -5 -4 -10
-10 -10 -5 0 -10 5 -10 10 0 6 5 10 10 10 6 0 10 -4 10 -10z m-1585 -20 c-3
-5 -11 -10 -16 -10 -6 0 -7 5 -4 10 3 6 11 10 16 10 6 0 7 -4 4 -10z m1570
-10 c18 -8 17 -9 -7 -9 -16 -1 -28 4 -28 9 0 12 8 12 35 0z m-1709 -85 c-3 -9
-10 -13 -16 -10 -12 7 -13 48 -3 59 11 11 27 -30 19 -49z m4464 10 c0 -8 -4
-15 -10 -15 -5 0 -10 7 -10 15 0 8 5 15 10 15 6 0 10 -7 10 -15z m-2823 -22
c7 -10 18 -25 23 -35 8 -14 6 -15 -18 -9 -20 5 -28 15 -30 34 -4 31 5 34 25
10z m93 -22 c0 -6 -4 -13 -10 -16 -5 -3 -10 1 -10 9 0 9 5 16 10 16 6 0 10 -4
10 -9z m5 -41 c3 -5 -1 -10 -9 -10 -9 0 -16 5 -16 10 0 6 4 10 9 10 6 0 13 -4
16 -10z m-3658 -46 c3 -10 8 -41 13 -69 4 -27 13 -82 20 -120 12 -63 11 -74
-4 -107 -32 -67 -49 -73 -248 -76 -152 -3 -182 -1 -214 14 -50 24 -66 65 -59
152 13 156 47 228 95 202 13 -7 58 -14 101 -17 69 -5 79 -4 79 11 0 9 7 16 15
16 8 0 15 -7 15 -15 0 -11 9 -14 37 -10 44 6 105 24 118 36 13 13 28 6 32 -17z
m2261 -858 c32 1 36 -6 23 -39 -6 -16 -21 -19 -96 -23 -194 -8 -246 -1 -260
33 -3 9 -4 17 -3 18 11 9 186 21 238 16 36 -3 80 -5 98 -5z m-381 -23 c-9 -9
-19 -14 -23 -11 -10 10 6 28 24 28 15 0 15 -1 -1 -17z m-70 -15 c-3 -8 -6 -5
-6 6 -1 11 2 17 5 13 3 -3 4 -12 1 -19z m4858 -1080 c22 -20 57 -42 77 -49 21
-7 38 -15 38 -18 0 -3 -19 -14 -43 -23 -57 -24 -122 -89 -143 -145 l-18 -45
-12 43 c-20 67 -98 139 -178 164 -22 6 -18 13 10 18 66 13 136 77 161 148 l17
48 26 -52 c14 -29 44 -69 65 -89z"/>
<path d="M6824 6055 c-11 -26 7 -35 71 -35 66 0 79 7 69 34 -8 22 -132 23
-140 1z"/>
<path d="M2350 5175 l0 -36 108 3 107 3 3 26 c3 25 1 26 -59 33 -34 3 -84 6
-110 6 l-49 0 0 -35z"/>
<path d="M4803 4665 c-8 -21 -2 -24 25 -14 13 5 20 13 17 19 -9 15 -35 12 -42
-5z"/>
<path d="M3616 4394 c-9 -8 -16 -19 -16 -23 0 -4 -14 -11 -32 -16 -39 -12 -60
-41 -38 -55 23 -15 207 -13 212 3 7 18 -2 37 -17 37 -7 0 -22 16 -34 35 -22
38 -50 45 -75 19z"/>
</g>
</svg>
